CalSansText-Regular.ufo
<glyph name="comma" format="2">
  <advance width="242.25"/>
  <unicode hex="002C"/>
  <outline>
    <contour>
      <point x="78.5" y="-169.25" type="line"/>
      <point x="156.0" y="-137.75"/>
      <point x="201.25" y="-79.25"/>
      <point x="201.25" y="-2.25" type="curve" smooth="yes"/>
      <point x="201.25" y="69.25"/>
      <point x="165.0" y="114.25"/>
      <point x="113.0" y="114.25" type="curve" smooth="yes"/>
      <point x="77.0" y="114.25"/>
      <point x="49.75" y="92.75"/>
      <point x="49.75" y="58.25" type="curve" smooth="yes"/>
      <point x="49.75" y="25.5"/>
      <point x="71.75" y="2.25"/>
      <point x="100.5" y="2.25" type="curve" smooth="yes"/>
      <point x="114.5" y="2.25"/>
      <point x="123.5" y="6.25"/>
      <point x="132.0" y="15.75" type="curve"/>
      <point x="134.75" y="15.75" type="line"/>
      <point x="136.5" y="10.5"/>
      <point x="137.25" y="4.5"/>
      <point x="137.25" y="-5.0" type="curve" smooth="yes"/>
      <point x="137.25" y="-68.5"/>
      <point x="97.0" y="-92.0"/>
      <point x="52.75" y="-113.5" type="curve"/>
    </contour>
  </outline>
</glyph>
<glyph name="eight" format="2">
  <advance width="565.5"/>
  <unicode hex="0038"/>
  <outline>
    <contour>
      <point x="282.75" y="-13.0" type="curve" smooth="yes"/>
      <point x="416.5" y="-13.0"/>
      <point x="511.25" y="71.25"/>
      <point x="511.25" y="194.75" type="curve" smooth="yes"/>
      <point x="511.25" y="285.5"/>
      <point x="459.5" y="347.25"/>
      <point x="392.5" y="371.5" type="curve"/>
      <point x="392.5" y="375.25" type="line"/>
      <point x="452.75" y="404.0"/>
      <point x="492.0" y="460.0"/>
      <point x="492.0" y="525.25" type="curve" smooth="yes"/>
      <point x="492.0" y="635.25"/>
      <point x="406.75" y="713.0"/>
      <point x="282.75" y="713.0" type="curve" smooth="yes"/>
      <point x="159.0" y="713.0"/>
      <point x="75.75" y="635.25"/>
      <point x="75.75" y="523.0" type="curve" smooth="yes"/>
      <point x="75.75" y="460.0"/>
      <point x="112.75" y="404.0"/>
      <point x="174.0" y="375.25" type="curve"/>
      <point x="174.0" y="371.5" type="line"/>
      <point x="106.0" y="347.25"/>
      <point x="54.25" y="285.5"/>
      <point x="54.25" y="192.5" type="curve" smooth="yes"/>
      <point x="54.25" y="71.25"/>
      <point x="149.25" y="-13.0"/>
    </contour>
    <contour>
      <point x="282.75" y="72.5" type="curve" smooth="yes"/>
      <point x="210.0" y="72.5"/>
      <point x="153.25" y="126.0"/>
      <point x="153.25" y="202.25" type="curve" smooth="yes"/>
      <point x="153.25" y="271.5"/>
      <point x="201.75" y="328.75"/>
      <point x="282.75" y="328.75" type="curve" smooth="yes"/>
      <point x="363.75" y="328.75"/>
      <point x="412.25" y="271.5"/>
      <point x="412.25" y="200.0" type="curve" smooth="yes"/>
      <point x="412.25" y="126.0"/>
      <point x="355.5" y="72.5"/>
    </contour>
    <contour>
      <point x="285.25" y="412.25" type="curve" smooth="yes"/>
      <point x="213.75" y="412.25"/>
      <point x="173.75" y="470.0"/>
      <point x="173.75" y="521.25" type="curve" smooth="yes"/>
      <point x="173.75" y="584.25"/>
      <point x="224.25" y="627.75"/>
      <point x="283.0" y="627.75" type="curve" smooth="yes"/>
      <point x="343.0" y="627.75"/>
      <point x="394.5" y="584.25"/>
      <point x="394.25" y="519.0" type="curve" smooth="yes"/>
      <point x="394.0" y="464.75"/>
      <point x="356.0" y="412.25"/>
    </contour>
  </outline>
</glyph>
<glyph name="less" format="2">
  <advance width="596.0"/>
  <unicode hex="003C"/>
  <outline>
    <contour>
      <point x="375.5" y="70.0" type="line"/>
      <point x="498.0" y="70.0" type="line"/>
      <point x="238.0" y="312.0" type="line"/>
      <point x="238.0" y="317.0" type="line"/>
      <point x="498.0" y="550.0" type="line"/>
      <point x="375.5" y="550.0" type="line"/>
      <point x="112.5" y="310.0" type="line"/>
    </contour>
  </outline>
</glyph>
<glyph name="equal" format="2">
  <advance width="596.0"/>
  <unicode hex="003D"/>
  <outline>
    <contour>
      <point x="77.75" y="377.5" type="line"/>
      <point x="514.75" y="377.5" type="line"/>
      <point x="514.75" y="459.0" type="line"/>
      <point x="77.75" y="459.0" type="line"/>
    </contour>
    <contour>
      <point x="77.75" y="174.25" type="line"/>
      <point x="514.75" y="174.25" type="line"/>
      <point x="514.75" y="255.75" type="line"/>
      <point x="77.75" y="255.75" type="line"/>
    </contour>
  </outline>
</glyph>
<glyph name="W" format="2">
  <advance width="1052.5"/>
  <unicode hex="0057"/>
  <anchor x="526.25" y="0.0" name="bottom"/>
  <anchor x="526.25" y="700.0" name="top"/>
  <outline>
    <contour>
      <point x="250.25" y="0.0" type="line"/>
      <point x="343.25" y="0.0" type="line"/>
      <point x="497.25" y="464.75" type="line" smooth="yes"/>
      <point x="515.5" y="517.75"/>
      <point x="519.25" y="541.75"/>
      <point x="524.0" y="568.5" type="curve"/>
      <point x="528.0" y="568.5" type="line"/>
      <point x="532.75" y="541.75"/>
      <point x="536.25" y="518.75"/>
      <point x="554.5" y="464.75" type="curve" smooth="yes"/>
      <point x="707.0" y="0.0" type="line"/>
      <point x="800.0" y="0.0" type="line"/>
      <point x="1028.0" y="700.0" type="line"/>
      <point x="920.5" y="700.0" type="line"/>
      <point x="780.0" y="235.75" type="line" smooth="yes"/>
      <point x="763.0" y="182.5"/>
      <point x="759.75" y="157.25"/>
      <point x="754.75" y="131.25" type="curve"/>
      <point x="750.75" y="131.25" type="line"/>
      <point x="745.75" y="157.25"/>
      <point x="742.75" y="181.75"/>
      <point x="724.5" y="235.75" type="curve" smooth="yes"/>
      <point x="576.5" y="700.0" type="line"/>
      <point x="481.25" y="700.0" type="line"/>
      <point x="328.0" y="235.75" type="line" smooth="yes"/>
      <point x="310.25" y="182.5"/>
      <point x="306.75" y="157.25"/>
      <point x="301.75" y="131.25" type="curve"/>
      <point x="297.75" y="131.25" type="line"/>
      <point x="292.75" y="157.25"/>
      <point x="288.25" y="181.5"/>
      <point x="271.75" y="235.75" type="curve" smooth="yes"/>
      <point x="135.0" y="700.0" type="line"/>
      <point x="24.5" y="700.0" type="line"/>
    </contour>
  </outline>
</glyph>
<glyph name="Y" format="2">
  <advance width="574.75"/>
  <unicode hex="0059"/>
  <anchor x="289.0" y="0.0" name="bottom"/>
  <anchor x="289.75" y="700.0" name="top"/>
  <anchor x="20.0" y="700.0" name="topleft"/>
  <outline>
    <contour>
      <point x="240.25" y="0.0" type="line"/>
      <point x="336.75" y="0.0" type="line"/>
      <point x="336.75" y="286.25" type="line"/>
      <point x="569.25" y="700.0" type="line"/>
      <point x="459.0" y="700.0" type="line"/>
      <point x="356.25" y="504.5" type="line" smooth="yes"/>
      <point x="314.25" y="424.75"/>
      <point x="296.25" y="376.25"/>
      <point x="292.25" y="364.25" type="curve"/>
      <point x="289.25" y="364.25" type="line"/>
      <point x="286.25" y="376.25"/>
      <point x="265.75" y="420.5"/>
      <point x="221.5" y="503.5" type="curve" smooth="yes"/>
      <point x="116.0" y="700.0" type="line"/>
      <point x="5.5" y="700.0" type="line"/>
      <point x="240.25" y="287.75" type="line"/>
    </contour>
  </outline>
</glyph>
<glyph name="k" format="2">
  <advance width="538.25"/>
  <unicode hex="006B"/>
  <anchor x="269.5" y="0.0" name="bottom"/>
  <anchor x="269.5" y="740.0" name="top"/>
  <outline>
    <contour>
      <point x="71.5" y="0.0" type="line"/>
      <point x="166.75" y="0.0" type="line"/>
      <point x="166.75" y="253.0" type="line"/>
      <point x="170.25" y="253.0" type="line"/>
      <point x="388.75" y="0.0" type="line"/>
      <point x="511.75" y="0.25" type="line"/>
      <point x="270.5" y="276.75" type="line"/>
      <point x="501.0" y="493.75" type="line"/>
      <point x="371.0" y="493.75" type="line"/>
      <point x="170.25" y="290.5" type="line"/>
      <point x="166.75" y="290.5" type="line"/>
      <point x="166.75" y="740.0" type="line"/>
      <point x="71.5" y="740.0" type="line"/>
    </contour>
  </outline>
</glyph>
<glyph name="OE" format="2">
  <advance width="1113.25"/>
  <unicode hex="0152"/>
  <anchor x="642.0" y="0.0" name="bottom"/>
  <anchor x="952.0" y="0.0" name="ogonek"/>
  <anchor x="642.0" y="700.0" name="top"/>
  <outline>
    <contour>
      <point x="682.75" y="189.75" type="curve"/>
      <point x="617.25" y="102.0" type="line"/>
      <point x="649.5" y="102.0" type="line"/>
      <point x="654.5" y="597.75" type="line"/>
      <point x="625.75" y="597.75" type="line"/>
      <point x="682.75" y="506.25" type="line"/>
      <point x="634.75" y="637.5"/>
      <point x="540.25" y="713.0"/>
      <point x="389.75" y="713.0" type="curve" smooth="yes"/>
      <point x="185.75" y="713.0"/>
      <point x="41.25" y="550.0"/>
      <point x="41.25" y="349.0" type="curve" smooth="yes"/>
      <point x="41.25" y="148.25"/>
      <point x="185.75" y="-13.0"/>
      <point x="389.75" y="-13.0" type="curve" smooth="yes"/>
      <point x="540.25" y="-13.0"/>
      <point x="634.75" y="63.25"/>
    </contour>
    <contour>
      <point x="391.0" y="78.5" type="curve" smooth="yes"/>
      <point x="243.5" y="78.5"/>
      <point x="140.0" y="184.0"/>
      <point x="140.0" y="349.0" type="curve" smooth="yes"/>
      <point x="140.0" y="514.0"/>
      <point x="243.5" y="621.5"/>
      <point x="391.0" y="621.5" type="curve" smooth="yes"/>
      <point x="539.0" y="621.5"/>
      <point x="642.0" y="520.75"/>
      <point x="642.0" y="349.75" type="curve" smooth="yes"/>
      <point x="642.0" y="184.75"/>
      <point x="539.0" y="78.5"/>
    </contour>
    <component base="E" xOffset="560.5"/>
  </outline>
</glyph>
<glyph name="Fhook" format="2">
  <advance width="551.5"/>
  <unicode hex="0191"/>
  <anchor x="132.75" y="0.0" name="bottom"/>
  <anchor x="109.75" y="0.0" name="ogonek"/>
  <anchor x="299.5" y="700.0" name="top"/>
  <outline>
    <contour>
      <point x="-11.25" y="-232.0" type="curve" smooth="yes"/>
      <point x="108.5" y="-229.75"/>
      <point x="181.75" y="-160.75"/>
      <point x="181.75" y="-30.25" type="curve" smooth="yes"/>
      <point x="181.75" y="0.0" type="line"/>
      <point x="135.0" y="126.75" type="line"/>
      <point x="83.75" y="0.0" type="line"/>
      <point x="83.75" y="-30.25" type="line" smooth="yes"/>
      <point x="83.75" y="-99.5"/>
      <point x="45.75" y="-138.75"/>
      <point x="-10.0" y="-138.75" type="curve" smooth="yes"/>
      <point x="-43.5" y="-138.75"/>
      <point x="-71.0" y="-128.0"/>
      <point x="-91.5" y="-103.25" type="curve"/>
      <point x="-156.0" y="-183.0" type="line"/>
      <point x="-119.0" y="-219.25"/>
      <point x="-69.0" y="-232.75"/>
    </contour>
    <component base="F" xOffset="2.25"/>
  </outline>
</glyph>
<glyph name="Xi" format="2">
  <advance width="541.75"/>
  <unicode hex="039E"/>
  <outline>
    <contour>
      <point x="70.5" y="0.0" type="line"/>
      <point x="471.25" y="0.0" type="line"/>
      <point x="471.25" y="90.75" type="line"/>
      <point x="70.5" y="90.75" type="line"/>
    </contour>
    <contour>
      <point x="75.5" y="310.25" type="line"/>
      <point x="464.25" y="310.25" type="line"/>
      <point x="464.25" y="401.0" type="line"/>
      <point x="75.5" y="401.0" type="line"/>
    </contour>
    <contour>
      <point x="70.5" y="609.25" type="line"/>
      <point x="469.25" y="609.25" type="line"/>
      <point x="469.25" y="700.0" type="line"/>
      <point x="70.5" y="700.0" type="line"/>
    </contour>
  </outline>
</glyph>
<glyph name="dagger" format="2">
  <advance width="385.0"/>
  <unicode hex="2020"/>
  <outline>
    <contour>
      <point x="152.5" y="301.0" type="line"/>
      <point x="232.5" y="301.0" type="line"/>
      <point x="232.5" y="753.0" type="line"/>
      <point x="152.5" y="753.0" type="line"/>
    </contour>
    <contour>
      <point x="50.0" y="577.0" type="line"/>
      <point x="335.0" y="577.0" type="line"/>
      <point x="335.0" y="652.0" type="line"/>
      <point x="50.0" y="652.0" type="line"/>
    </contour>
  </outline>
</glyph>
<glyph name="kip" format="2">
  <advance width="612.0"/>
  <unicode hex="20AD"/>
  <anchor x="301.25" y="29.5" name="bottom"/>
  <anchor x="468.75" y="29.5" name="ogonek"/>
  <anchor x="291.25" y="672.5448250000001" name="top"/>
  <outline>
    <contour>
      <point x="0.0" y="322.25" type="line"/>
      <point x="602.0" y="322.25" type="line"/>
      <point x="602.0" y="397.5" type="line"/>
      <point x="0.0" y="397.5" type="line"/>
    </contour>
    <component base="K" yScale="0.917325" yOffset="29.5"/>
  </outline>
</glyph>
<glyph name="cedi" format="2">
  <advance width="653.75"/>
  <unicode hex="20B5"/>
  <outline>
    <contour>
      <point x="371.0" y="27.0" type="curve" smooth="yes"/>
      <point x="487.0" y="27.0"/>
      <point x="574.25" y="70.75"/>
      <point x="632.5" y="141.5" type="curve"/>
      <point x="561.75" y="200.75" type="line"/>
      <point x="513.75" y="146.5"/>
      <point x="456.25" y="118.5"/>
      <point x="374.0" y="118.5" type="curve" smooth="yes"/>
      <point x="255.75" y="118.5"/>
      <point x="142.25" y="191.75"/>
      <point x="142.25" y="349.0" type="curve" smooth="yes"/>
      <point x="142.25" y="505.5"/>
      <point x="248.25" y="581.5"/>
      <point x="371.0" y="581.5" type="curve" smooth="yes"/>
      <point x="446.0" y="581.5"/>
      <point x="508.25" y="558.75"/>
      <point x="557.0" y="499.75" type="curve"/>
      <point x="627.75" y="562.5" type="line"/>
      <point x="564.0" y="638.25"/>
      <point x="476.5" y="673.0"/>
      <point x="371.0" y="673.0" type="curve" smooth="yes"/>
      <point x="194.0" y="673.0"/>
      <point x="41.25" y="552.25"/>
      <point x="41.25" y="349.0" type="curve" smooth="yes"/>
      <point x="41.25" y="146.0"/>
      <point x="197.5" y="27.0"/>
    </contour>
    <contour>
      <point x="338.75" y="-69.0" type="line"/>
      <point x="415.25" y="-69.0" type="line"/>
      <point x="415.25" y="775.0" type="line"/>
      <point x="338.75" y="775.0" type="line"/>
    </contour>
  </outline>
</glyph>
<glyph name="upArrow" format="2">
  <advance width="600.0"/>
  <unicode hex="2191"/>
  <outline>
    <contour>
      <point x="253.5" y="40.25" type="line"/>
      <point x="345.0" y="41.0" type="line"/>
      <point x="345.0" y="500.0" type="line"/>
      <point x="351.5" y="502.5" type="line"/>
      <point x="470.75" y="370.75" type="line"/>
      <point x="534.25" y="430.0" type="line"/>
      <point x="300.0" y="672.0" type="line"/>
      <point x="65.75" y="430.0" type="line"/>
      <point x="128.25" y="370.75" type="line"/>
      <point x="247.0" y="501.75" type="line"/>
      <point x="253.5" y="499.25" type="line"/>
    </contour>
  </outline>
</glyph>
<glyph name="blackCircle" format="2">
  <advance width="786.0"/>
  <unicode hex="25CF"/>
  <outline>
    <contour>
      <point x="394.0" y="-13.0" type="curve" smooth="yes"/>
      <point x="593.0" y="-13.0"/>
      <point x="756.0" y="149.0"/>
      <point x="756.0" y="350.0" type="curve" smooth="yes"/>
      <point x="756.0" y="549.0"/>
      <point x="593.0" y="713.0"/>
      <point x="394.0" y="713.0" type="curve" smooth="yes"/>
      <point x="194.0" y="713.0"/>
      <point x="30.0" y="549.0"/>
      <point x="30.0" y="350.0" type="curve" smooth="yes"/>
      <point x="30.0" y="149.0"/>
      <point x="194.0" y="-13.0"/>
    </contour>
  </outline>
</glyph>
<glyph name="ballotBoxWithCheck" format="2">
  <advance width="890.0"/>
  <unicode hex="2611"/>
  <outline>
    <contour>
      <point x="356.0" y="153.5" type="line"/>
      <point x="401.75" y="216.25" type="line"/>
      <point x="268.25" y="359.5" type="line"/>
      <point x="213.0" y="306.5" type="line"/>
    </contour>
    <contour>
      <point x="356.0" y="153.5" type="line"/>
      <point x="680.75" y="503.25" type="line"/>
      <point x="624.75" y="556.25" type="line"/>
      <point x="311.25" y="218.75" type="line"/>
    </contour>
    <component base="whiteSquare"/>
  </outline>
</glyph>
<glyph name="heavyCheckMark" format="2">
  <advance width="600.0"/>
  <unicode hex="2714"/>
  <outline>
    <contour>
      <point x="196.5" y="175.75" type="curve" smooth="yes"/>
      <point x="219.5" y="156.75"/>
      <point x="248.75" y="143.25"/>
      <point x="287.25" y="177.25" type="curve" smooth="yes"/>
      <point x="361.25" y="242.0"/>
      <point x="479.25" y="457.75"/>
      <point x="536.0" y="575.5" type="curve" smooth="yes"/>
      <point x="546.0" y="597.5"/>
      <point x="519.5" y="609.75"/>
      <point x="506.75" y="590.75" type="curve" smooth="yes"/>
      <point x="412.75" y="445.75"/>
      <point x="321.5" y="316.75"/>
      <point x="271.5" y="258.75" type="curve" smooth="yes"/>
      <point x="257.5" y="242.75"/>
      <point x="246.25" y="245.25"/>
      <point x="228.5" y="259.75" type="curve" smooth="yes"/>
      <point x="189.75" y="291.25"/>
      <point x="158.0" y="334.75"/>
      <point x="130.75" y="378.0" type="curve" smooth="yes"/>
      <point x="115.75" y="400.5"/>
      <point x="91.5" y="397.0"/>
      <point x="77.0" y="369.0" type="curve" smooth="yes"/>
      <point x="67.25" y="350.0"/>
      <point x="65.75" y="322.25"/>
      <point x="74.5" y="308.75" type="curve" smooth="yes"/>
      <point x="99.5" y="264.75"/>
      <point x="149.5" y="214.75"/>
    </contour>
  </outline>
</glyph>
<glyph name="whiteSmallStar" format="2">
  <advance width="480.0"/>
  <unicode hex="2B52"/>
  <outline>
    <contour>
      <point x="116.0" y="199.0" type="line"/>
      <point x="239.0" y="289.0" type="line"/>
      <point x="363.0" y="199.0" type="line"/>
      <point x="316.0" y="344.0" type="line"/>
      <point x="440.0" y="434.0" type="line"/>
      <point x="287.0" y="434.0" type="line"/>
      <point x="239.0" y="579.0" type="line"/>
      <point x="192.0" y="434.0" type="line"/>
      <point x="40.0" y="434.0" type="line"/>
      <point x="163.0" y="344.0" type="line"/>
    </contour>
    <contour>
      <point x="170.5" y="274.5" type="line"/>
      <point x="198.25" y="356.75" type="line"/>
      <point x="127.25" y="406.5" type="line"/>
      <point x="213.75" y="405.5" type="line"/>
      <point x="239.0" y="488.5" type="line"/>
      <point x="265.5" y="405.5" type="line"/>
      <point x="351.75" y="406.5" type="line"/>
      <point x="280.75" y="356.75" type="line"/>
      <point x="309.0" y="274.5" type="line"/>
      <point x="239.0" y="327.0" type="line"/>
    </contour>
  </outline>
</glyph>
<glyph name="Eng.ss10" format="2">
  <advance width="760.25"/>
  <anchor x="387.5" y="0.0" name="bottom"/>
  <anchor x="668.5" y="0.0" name="ogonek"/>
  <anchor x="378.5" y="700.0" name="top"/>
  <outline>
    <contour>
      <point x="585.5" y="97.5" type="line"/>
      <point x="585.5" y="-220.0" type="line"/>
      <point x="678.75" y="-220.0" type="line"/>
      <point x="678.75" y="0.0" type="line"/>
    </contour>
    <component base="N"/>
  </outline>
</glyph>
<glyph name="brevecomb.case" format="2">
  <anchor x="0.0" y="700.0" name="_top"/>
  <anchor x="0.75" y="807.0" name="top"/>
  <outline>
    <contour>
      <point x="0.0" y="735.75" type="curve" smooth="yes"/>
      <point x="82.25" y="735.75"/>
      <point x="138.75" y="783.5"/>
      <point x="138.75" y="856.5" type="curve"/>
      <point x="68.0" y="856.5" type="line"/>
      <point x="69.75" y="822.75"/>
      <point x="46.75" y="794.25"/>
      <point x="0.0" y="794.25" type="curve" smooth="yes"/>
      <point x="-44.5" y="794.25"/>
      <point x="-69.75" y="822.75"/>
      <point x="-68.0" y="856.5" type="curve"/>
      <point x="-138.75" y="856.5" type="line"/>
      <point x="-138.75" y="783.5"/>
      <point x="-82.0" y="735.75"/>
    </contour>
  </outline>
</glyph>
<glyph name="f_f_i" format="2">
  <advance width="917.25"/>
  <anchor x="161.25" y="0.0" name="bottom_1"/>
  <anchor x="251.25" y="740.0" name="top_1"/>
  <anchor x="480.25" y="0.0" name="bottom_2"/>
  <anchor x="570.25" y="740.0" name="top_2"/>
  <anchor x="799.5" y="0.0" name="bottom_3"/>
  <anchor x="765.75" y="0.0" name="ogonek_3"/>
  <anchor x="799.5" y="493.75" name="top_3"/>
  <anchor x="374.75" y="0.0" name="caret_1"/>
  <anchor x="693.75" y="0.0" name="caret_2"/>
  <outline>
    <contour>
      <point x="140.0" y="409.75" type="line"/>
      <point x="836.25" y="409.75" type="line"/>
      <point x="846.25" y="493.75" type="line"/>
      <point x="140.0" y="493.75" type="line"/>
    </contour>
    <component base="f"/>
    <component base="f" xOffset="319.0"/>
    <component base="i" xOffset="681.0"/>
  </outline>
</glyph>
